<svg width="130" height="31" viewBox="0 0 130 31" fill="none" xmlns="http://www.w3.org/2000/svg">
<path d="M29.6736 17.7904C30.5205 19.9936 32.5073 21.7301 35.6238 21.7301H74.1805C77.2862 21.7301 79.2511 20.0056 80.0852 17.8127L88.1813 17.8012C87.1889 24.4721 82.2966 30.4668 73.5044 30.4668H36.0745C27.2843 30.4668 22.3925 24.4753 21.3984 17.8059L29.6736 17.7904Z" fill="#D92F23"/>
<path d="M0 21.8344H4.95891C5.04347 24.2893 7.07777 25.516 9.28159 25.516C11.57 25.516 13.6043 24.0352 13.6043 21.7082C13.6043 19.211 11.2732 17.6873 9.28159 17.6032C9.02751 17.6032 6.99281 17.6032 4.83166 16.6299C1.73753 15.1913 0 12.5672 0 9.05567C0 3.42739 4.49261 -8.39233e-05 9.28159 -8.39233e-05C14.4096 -8.39233e-05 18.351 3.47 18.4355 8.50527H13.5193C13.4348 6.05116 11.5277 4.95075 9.28159 4.95075C6.95053 4.95075 4.95891 6.30445 4.95891 9.05567C4.95891 11.5098 7.07777 12.8213 9.28159 12.8213C9.4934 12.8213 11.57 12.8213 13.6892 13.7946C16.8253 15.2336 18.5209 18.1955 18.5209 21.7082C18.5209 27.3775 14.0706 30.4668 9.28159 30.4668C4.15316 30.3398 0.0845631 27.3775 0 21.8344Z" fill="#3B506E"/>
<path d="M94.5124 12.649V4.95134H88.2822V0.423462H105.658V4.95134H99.4282V12.649H94.5124ZM99.4282 30.0444H94.5124V17.8189H99.4282V30.0444Z" fill="#3B506E"/>
<path d="M110.208 12.649V0.423462H129.999V5.37469H115.166V12.649H110.208ZM115.166 17.8189V25.0932H129.999V30.0444H110.208V17.8189H115.166Z" fill="#3B506E"/>
<path d="M129.595 14.7938L121.868 8.47614C121.321 8.02888 120.434 8.02888 119.887 8.47614L117.906 10.0959C117.358 10.5435 117.358 11.2688 117.906 11.716L121.269 14.4656C122.075 15.1256 122.075 16.1953 121.269 16.8552L117.906 19.6049C117.358 20.0525 117.358 20.7773 117.906 21.225L119.887 22.8447C120.434 23.292 121.321 23.292 121.868 22.8447L129.595 16.5271C129.886 16.2889 130.018 15.9723 129.999 15.6604C130.018 15.3486 129.886 15.032 129.595 14.7938Z" fill="#6C839A"/>
<path d="M121.269 14.4656C122.075 15.1256 122.075 16.1953 121.269 16.8552L117.906 19.6045C117.358 20.0521 117.358 20.7773 117.906 21.225L119.887 22.8447C120.434 23.292 121.321 23.292 121.868 22.8447L124.963 20.3146C125.387 17.9126 121.269 14.4656 121.269 14.4656Z" fill="#3B506E"/>
<path d="M80.0519 12.6005C79.1959 10.4339 77.2358 8.73769 74.1823 8.73769H35.626C32.5059 8.73769 30.5279 10.4486 29.6806 12.6283L21.417 12.5531C22.4477 5.92754 27.334 0.000957489 36.0763 0.000957489H73.5062C82.2832 0.000957489 87.1739 5.97493 88.1779 12.6323" fill="#F1491C"/>
</svg>
