<?xml version="1.0" standalone="no"?>
<!DOCTYPE svg PUBLIC "-//W3C//DTD SVG 20010904//EN"
 "http://www.w3.org/TR/2001/REC-SVG-20010904/DTD/svg10.dtd">
<svg version="1.0" xmlns="http://www.w3.org/2000/svg"
 width="496.000000pt" height="496.000000pt" viewBox="0 0 496.000000 496.000000"
 preserveAspectRatio="xMidYMid meet">

<g transform="translate(0.000000,496.000000) scale(0.100000,-0.100000)"
fill="#000000" stroke="none">
<path d="M2420 4493 c-337 -22 -665 -118 -923 -270 -49 -29 -91 -53 -94 -53
-2 0 -34 -22 -71 -50 -37 -27 -87 -64 -111 -82 -70 -52 -268 -255 -333 -342
-208 -277 -331 -561 -398 -926 -22 -117 -25 -436 -5 -568 43 -298 131 -548
277 -791 85 -141 165 -240 307 -381 183 -182 365 -311 578 -408 784 -360 1703
-200 2306 401 184 183 296 340 406 568 88 181 147 379 182 599 20 127 17 440
-5 575 -73 446 -262 814 -580 1131 -268 268 -572 440 -943 535 -171 43 -443
72 -593 62z m1036 -630 c4 -14 0 -31 -8 -41 -13 -15 -415 -463 -509 -567 -20
-22 -80 -89 -135 -150 -54 -60 -117 -130 -139 -154 -71 -79 -84 -91 -100 -91
-19 0 -55 35 -55 54 0 12 35 62 60 86 3 3 43 48 90 100 47 52 89 100 95 106 5
6 44 49 85 95 41 46 104 115 140 154 69 75 86 94 225 250 49 55 112 124 141
153 49 49 54 52 78 41 15 -7 29 -23 32 -36z m-1544 -550 c291 -291 528 -534
528 -542 0 -22 -31 -51 -55 -51 -27 0 -1075 1037 -1075 1065 0 26 29 55 54 55
14 0 188 -167 548 -527z m1739 427 c19 -11 19 -36 19 -1366 l0 -1354 -25 -10
c-26 -10 -55 -4 -67 14 -4 6 -8 615 -8 1353 0 1206 2 1343 16 1357 18 19 38
20 65 6z m-2291 -300 c20 -20 20 -33 20 -1210 0 -1177 0 -1190 -20 -1210 -24
-24 -39 -25 -66 -6 -19 14 -19 40 -22 1188 -1 645 0 1188 3 1206 4 21 14 36
28 42 32 13 35 12 57 -10z m2036 -35 c15 -22 15 -27 1 -47 -13 -20 -342 -388
-476 -533 -46 -49 -186 -205 -251 -277 -36 -41 -63 -47 -92 -21 -24 22 -23 33
10 75 21 28 379 426 402 448 3 3 45 50 95 105 49 55 111 123 136 150 26 28 61
67 79 88 38 44 72 49 96 12z m-1788 -137 c17 -17 17 -1929 0 -1946 -17 -17
-54 -15 -72 4 -14 14 -16 115 -16 965 0 636 3 957 10 970 12 22 59 26 78 7z
m600 -591 c204 -205 372 -379 372 -387 0 -21 -31 -50 -54 -50 -24 0 -766 736
-766 760 0 21 31 50 54 50 15 0 139 -117 394 -373z m1156 277 c14 -14 16 -113
16 -945 0 -622 -3 -937 -10 -950 -12 -22 -59 -26 -78 -7 -17 17 -17 1889 0
1906 17 17 54 15 72 -4z"/>
</g>
</svg>
