<svg width="37" height="64" viewBox="0 0 37 64" fill="none" xmlns="http://www.w3.org/2000/svg">
    <path d="M36.4201 14.6432V7.1296C36.4201 4.6048 28.3945 0 18.5001 0C8.60248 0 0.580078 4.6048 0.580078 7.1296V14.6432C0.580078 21.4944 12.9865 27.1488 12.9865 32C12.9865 36.8448 0.580078 42.4992 0.580078 49.3504V56.8704C0.580078 59.392 8.60248 64 18.5001 64C28.3945 64 36.4201 59.392 36.4201 56.8672V49.3472C36.4201 42.496 24.0137 36.8416 24.0137 31.9968C24.0137 27.1488 36.4201 21.4944 36.4201 14.6432ZM5.51128 7.4496C7.73848 6.0448 11.9113 3.9872 18.6761 3.9872C25.4377 3.9872 31.4953 7.4496 31.4953 7.4496C31.9497 7.7248 33.7289 8.6752 32.5097 9.3984C29.8281 10.9888 24.5801 12.6624 18.5001 12.6624C12.4201 12.6624 7.35128 10.8192 4.66328 9.2256C3.44408 8.5056 5.51128 7.4496 5.51128 7.4496ZM20.1033 32C20.1033 35.8176 23.2905 38.2752 26.6665 41.5552C29.1337 43.9488 32.5097 47.2288 32.5097 49.3472V53.5968C29.4057 52.0512 20.1193 50.5408 20.1193 45.584C20.1193 43.0784 16.8777 43.0784 16.8777 45.584C16.8777 50.5408 7.59128 52.0512 4.48728 53.5968V49.3472C4.48728 47.2288 7.86648 43.9456 10.3305 41.5552C13.7065 38.2752 16.8937 35.8176 16.8937 32C16.8937 28.1824 13.7065 25.7248 10.3305 22.4448C7.86328 20.0448 4.48728 16.7648 4.48728 14.6432L4.34008 11.4496C7.62328 13.2192 12.8265 14.8992 18.5001 14.8992C24.1705 14.8992 29.3993 13.2192 32.6857 11.4496L32.5097 14.6432C32.5097 16.7616 29.1305 20.0448 26.6665 22.4448C23.2937 25.7248 20.1033 28.1824 20.1033 32Z" fill="#707070"/>
</svg>

